<?xml version="1.0" standalone="no"?>
<!DOCTYPE svg PUBLIC "-//W3C//DTD SVG 20010904//EN"
 "http://www.w3.org/TR/2001/REC-SVG-20010904/DTD/svg10.dtd">
<svg version="1.0" xmlns="http://www.w3.org/2000/svg"
 width="300.000000pt" height="300.000000pt" viewBox="0 0 300.000000 300.000000"
 preserveAspectRatio="xMidYMid meet">
<metadata>
Created by potrace 1.11, written by Peter Selinger 2001-2013
</metadata>
<g transform="translate(0.000000,300.000000) scale(0.100000,-0.100000)"
fill="#000000" stroke="none">
<path d="M460 2505 c0 -23 4 -25 40 -25 30 0 47 -7 65 -24 l23 -23 -1 -413 -2
-412 -24 -19 c-14 -11 -39 -19 -62 -19 -35 0 -39 -2 -39 -26 l0 -26 288 4
c261 4 292 7 344 26 l58 21 -14 -32 c-66 -158 -115 -227 -160 -227 -10 0 -16
-9 -16 -25 l0 -25 160 0 160 0 0 25 c0 22 -4 25 -35 25 -25 0 -44 8 -62 26
-30 30 -27 60 15 144 l27 55 143 0 c79 0 148 -2 152 -5 13 -8 70 -158 70 -184
0 -27 -17 -36 -66 -36 -32 0 -34 -2 -34 -33 0 -19 9 -59 19 -90 51 -147 191
-269 345 -302 61 -13 262 -13 321 -1 43 9 177 55 195 66 12 7 15 35 15 140 1
119 3 132 22 152 12 11 34 22 50 22 23 2 29 7 31 29 l3 27 -230 0 -231 0 0
-25 c0 -14 3 -25 8 -26 106 -9 106 -10 109 -169 l3 -128 -37 -13 c-99 -32
-203 -12 -271 54 -52 49 -92 142 -92 215 l0 32 100 0 100 0 0 25 c0 19 -5 25
-21 25 -12 0 -33 13 -49 30 -30 32 -115 222 -113 252 3 37 51 124 87 160 45
45 106 65 185 62 113 -4 215 -81 276 -209 26 -53 40 -72 53 -71 15 3 17 21 20
182 2 174 2 180 -18 181 -13 1 -25 -8 -35 -27 -23 -45 -42 -51 -94 -28 -97 42
-165 56 -263 53 -105 -3 -174 -21 -251 -67 -27 -16 -51 -28 -53 -26 -3 4 -148
344 -176 416 -27 69 -48 69 -73 0 l-18 -52 -17 50 c-37 114 -122 218 -213 259
-101 46 -163 54 -449 55 l-268 1 0 -26z m576 -90 c98 -48 168 -151 192 -282
10 -55 9 -187 -2 -243 -19 -97 -97 -207 -183 -254 -69 -39 -163 -50 -268 -31
l-30 5 0 409 c0 225 3 412 7 416 3 4 33 9 65 12 32 3 59 6 61 8 9 8 114 -19
158 -40z m369 -595 c14 -36 32 -78 40 -95 14 -31 45 -106 45 -109 0 0 -52 -1
-115 -2 -63 0 -115 4 -115 8 0 8 97 245 107 261 7 11 7 10 38 -63z"/>
<path d="M1533 713 c-22 -8 -15 -43 7 -43 13 0 20 7 20 19 0 22 -9 30 -27 24z"/>
<path d="M1600 599 c0 -117 0 -119 23 -119 21 0 22 2 20 103 0 56 -2 109 -2
117 -1 9 -10 16 -21 17 -19 2 -20 -4 -20 -118z"/>
<path d="M2051 689 c-38 -23 -53 -52 -53 -100 1 -79 49 -118 137 -111 49 4 52
7 51 69 l-1 58 -47 3 c-43 3 -48 1 -48 -17 0 -16 6 -21 25 -21 21 0 25 -5 25
-29 0 -25 -3 -28 -27 -23 -43 7 -63 30 -63 72 0 58 48 89 108 68 19 -6 22 -4
22 17 0 19 -6 25 -22 27 -13 0 -35 2 -50 3 -15 1 -41 -6 -57 -16z"/>
<path d="M150 591 l0 -111 64 0 c57 0 67 3 95 29 27 25 31 36 31 79 0 39 -6
57 -24 79 -21 24 -32 28 -95 31 l-71 4 0 -111z m120 49 c41 -41 10 -120 -47
-120 -22 0 -23 4 -23 70 0 68 1 70 25 70 14 0 34 -9 45 -20z"/>
<path d="M1002 673 c-6 -16 -24 -65 -40 -110 l-30 -83 24 0 c16 0 28 8 36 25
9 20 18 25 49 25 31 0 38 -4 43 -25 5 -19 13 -25 35 -25 l29 0 -42 110 c-38
102 -43 110 -67 110 -20 0 -30 -7 -37 -27z m53 -80 c5 -20 3 -23 -19 -23 -24
0 -24 2 -14 31 11 32 21 29 33 -8z"/>
<path d="M385 625 c-32 -32 -33 -84 -2 -120 17 -20 32 -26 64 -27 49 0 63 7
63 33 0 11 -4 18 -8 15 -19 -12 -67 -15 -79 -4 -23 19 -14 25 39 24 51 -1 53
0 55 27 5 67 -83 101 -132 52z m83 -32 c2 -9 -7 -13 -27 -13 -30 0 -39 9 -24
24 11 10 46 3 51 -11z"/>
<path d="M558 639 c-31 -18 -11 -37 33 -32 31 4 39 2 39 -10 0 -8 -6 -15 -12
-14 -57 2 -88 -18 -88 -57 0 -27 21 -47 47 -46 10 0 37 0 61 1 l42 0 0 69 c0
60 -3 71 -22 84 -25 18 -74 20 -100 5z m76 -103 c-5 -14 -44 -29 -52 -21 -12
11 10 35 32 35 18 0 24 -4 20 -14z"/>
<path d="M709 648 c-1 -2 -2 -40 -3 -85 -2 -81 -2 -83 21 -83 13 0 23 6 24 13
0 6 2 31 2 54 2 47 17 69 41 60 12 -5 16 -21 16 -67 0 -57 1 -60 25 -60 24 0
25 2 25 68 0 54 -4 72 -18 85 -22 20 -63 22 -80 5 -9 -9 -12 -9 -12 0 0 10
-37 18 -41 10z"/>
<path d="M1176 631 c-23 -25 -30 -76 -16 -111 14 -33 39 -45 76 -36 27 7 32
-5 9 -24 -9 -7 -27 -10 -45 -6 -25 4 -30 2 -30 -13 0 -35 73 -43 110 -13 20
16 23 29 25 108 1 49 0 94 -2 100 -7 19 -109 15 -127 -5z m80 -45 c8 -34 -4
-66 -26 -66 -29 0 -42 54 -18 78 19 19 37 14 44 -12z"/>
<path d="M1347 643 c-4 -3 -7 -37 -7 -74 0 -58 3 -70 22 -83 12 -8 25 -13 31
-9 5 3 26 5 48 5 43 -1 41 -5 41 93 0 77 0 74 -17 71 -23 -3 -27 -11 -27 -60
0 -47 -22 -86 -40 -68 -5 5 -10 33 -12 63 -2 30 -5 57 -5 62 -1 9 -25 9 -34 0z"/>
<path d="M1520 564 c0 -77 2 -84 20 -84 17 0 20 7 21 43 3 118 2 119 -26 123
-12 2 -15 -14 -15 -82z"/>
<path d="M1700 642 c-8 -4 -16 -15 -16 -24 -2 -15 4 -17 37 -12 30 5 39 3 39
-7 0 -9 -12 -15 -32 -16 -35 -1 -58 -25 -58 -59 0 -33 20 -43 83 -43 l57 1 0
64 c0 51 -4 68 -20 84 -20 20 -61 25 -90 12z m64 -106 c-7 -19 -35 -29 -47
-17 -14 14 1 31 28 31 17 0 23 -4 19 -14z"/>
<path d="M1842 563 c-1 -80 0 -83 22 -83 21 0 23 5 25 51 1 58 6 69 29 69 22
0 27 39 6 47 -8 3 -21 0 -29 -7 -10 -8 -15 -9 -15 -2 0 6 -8 10 -19 9 -16 -1
-19 -10 -19 -84z"/>
<path d="M2219 628 c-6 -139 -5 -148 19 -148 12 0 22 3 23 8 0 4 2 23 4 42 1
19 3 43 4 53 0 10 9 17 21 17 15 0 20 7 20 25 0 27 -18 33 -38 13 -9 -9 -12
-9 -12 0 0 7 -9 12 -20 12 -14 0 -20 -7 -21 -22z"/>
<path d="M2343 626 c-48 -42 -31 -139 27 -146 39 -5 68 2 89 21 20 19 22 29
18 68 -9 78 -76 107 -134 57z m81 -32 c20 -52 -15 -101 -48 -68 -19 18 -20 38
-6 65 13 23 46 25 54 3z"/>
<path d="M2508 643 c-10 -17 -9 -110 1 -136 10 -25 13 -27 76 -26 l65 1 0 83
c0 79 -1 82 -22 81 -21 -1 -23 -7 -25 -54 -3 -102 -50 -109 -55 -9 -2 48 -7
63 -20 65 -9 2 -18 -1 -20 -5z"/>
<path d="M2685 637 c-2 -7 -3 -59 -2 -117 2 -98 3 -105 22 -105 16 0 21 8 23
38 3 33 5 36 22 27 23 -12 65 2 78 27 17 31 9 114 -13 129 -23 17 -57 18 -73
2 -7 -7 -12 -8 -12 -2 0 14 -40 15 -45 1z m103 -65 c2 -18 -2 -40 -8 -47 -18
-22 -50 -1 -50 33 0 58 53 70 58 14z"/>
</g>
</svg>
